<svg
        viewBox="0 0 100 100"
        xmlns="http://www.w3.org/2000/svg"
        width="192"
        height="192"
    >
        <defs>
            <linearGradient id="chevronGradient" x1="0.5" y1="0" x2="0.5" y2="1">
                <stop offset="0%" stop-color="#FBBF24" />
                <stop offset="100%" stop-color="#F59E0B" />
            </linearGradient>
            <linearGradient id="nodeGradient" x1="0" y1="0" x2="1" y2="1">
                <stop offset="0%" stop-color="#F59E0B" />
                <stop offset="100%" stop-color="#FBBF24" />
            </linearGradient>
            <style>
                :root {
                    --primary: 246 80% 59%;
                    --chart-2: 22c55e;
                    --chart-4: #FBBF24;
                    --chart-5: #F59E0B;
                }
            </style>
        </defs>

        <path
            d="M50 5 L93.3 27.5 L93.3 72.5 L50 95 L6.7 72.5 L6.7 27.5 Z"
            fill="hsl(var(--primary) / 0.10)"
            stroke="hsl(var(--primary))"
            stroke-width="4"
        />

        <g stroke="hsl(var(--primary))" stroke-width="1.5" stroke-opacity="0.5">
            <line x1="71.65" y1="16.25" x2="62" y2="28" />
            <line x1="93.3" y1="50" x2="73" y2="50" />
            <line x1="71.65" y1="83.75" x2="62" y2="72" />
            <line x1="28.35" y1="83.75" x2="38" y2="72" />
            <line x1="6.7" y1="50" x2="27" y2="50" />
            <line x1="28.35" y1="16.25" x2="38" y2="28" />
        </g>
        
        <g fill="url(#nodeGradient)">
            <circle cx="62" cy="28" r="4" />
            <circle cx="73" cy="50" r="4" />
            <circle cx="62" cy="72" r="4" />
            <circle cx="38" cy="72" r="4" />
            <circle cx="27" cy="50" r="4" />
            <circle cx="38" cy="28" r="4" />
        </g>
        
        <g transform="translate(0, -2)">
            <rect x="47" y="22" width="6" height="18" fill="#22c55e" rx="2" />
            <rect x="37" y="26" width="6" height="18" fill="#22c55e" fill-opacity="0.8" rx="2" />
            <rect x="57" y="26" width="6" height="18" fill="#22c55e" fill-opacity="0.8" rx="2" />
        </g>
    </svg>